<svg id="Layer_1" data-name="Layer 1" xmlns="http://www.w3.org/2000/svg" xmlns:xlink="http://www.w3.org/1999/xlink" viewBox="0 0 347.6 347.6"><defs><style>.cls-1{fill:url(#linear-gradient);}.cls-2{fill:#fff;}</style><linearGradient id="linear-gradient" x1="173.8" y1="352.12" x2="173.8" y2="-23.81" gradientUnits="userSpaceOnUse"><stop offset="0" stop-color="#06d5f7"/><stop offset="1" stop-color="#c000ff"/></linearGradient></defs><rect class="cls-1" width="347.6" height="347.6" rx="54"/><path class="cls-2" d="M282.88,146.9a13.63,13.63,0,0,0-3.43-6.69,13.15,13.15,0,0,0-1.75-1.58l-.16-.14L189.6,66.58a15.21,15.21,0,0,0-19.2,0L82.46,138.49l-.12.11h0a14.13,14.13,0,0,0-1.77,1.6,13.63,13.63,0,0,0-3.43,6.69,13.3,13.3,0,0,0-.25,2.62V282.67A13.62,13.62,0,0,0,90.49,296.3h179a13.62,13.62,0,0,0,13.62-13.62V149.52A13.3,13.3,0,0,0,282.88,146.9Zm-9.62,92.35H87.84V156.33l32.85,26.91,10.17,8.33,39.74,32.56a15.75,15.75,0,0,0,19.9,0l39.74-32.56,10.17-8.33,32.85-26.91ZM87.84,249.12H273.26v13.17H87.84Zm89.5-174.59a4.91,4.91,0,0,1,6.21,0l75.06,61.35,11.38,9.3-1.2,1-26.44,21.61-11.13,9.1-5.52,4.51-12.57,10.28-29.46,24.08a5.13,5.13,0,0,1-6.45,0l-29.46-24.08-12.57-10.28-5.52-4.51-11.13-9.1L92.1,146.16l-1.2-1,11.38-9.3Zm92.57,211.9H91.18a3.35,3.35,0,0,1-3.34-3.35v-9.82H273.26v9.82A3.35,3.35,0,0,1,269.91,286.43Z" transform="translate(-6.2 -6.2)"/></svg>